# xmcd CD database file
# Copyright (C) 1996 Ti Kan
#
# Track frame offsets:
#	182
#	10647
#	20722
#	30705
#	42867
#	53917
#	66700
#	79580
#	94780
#	106227
#
# Disc length: 1601 seconds
#
# Revision: 1
# Processed by: cddbd v1.4b41PL1 Copyright (c) Steve Scherf et al.
# Submitted via: EasyCD 2.21 - (C) 1996 Greg Leichner
#
DISCID=7a063f0a
DTITLE=Frankie Lymon And The Teenagers - Singing Their Hits
DYEAR=1900
DGENRE=
TTITLE0=Why Do Fools Fall In Love
TTITLE1=Who Can Explain
TTITLE2=Goody Goody
TTITLE3=Little Bitty Pretty One
TTITLE4=Out In The Cold Again
TTITLE5=I'm Not A Know-It-All
TTITLE6=Silhouettes
TTITLE7=Fools Rush In
TTITLE8=Short Fat Fannie
TTITLE9=Please Be Mine
EXTD=
EXTT0=
EXTT1=
EXTT2=
EXTT3=
EXTT4=
EXTT5=
EXTT6=
EXTT7=
EXTT8=
EXTT9=
PLAYORDER=
